<svg xmlns="http://www.w3.org/2000/svg" viewBox="0 0 36 36" class="avatar-frame-mythic">
	<defs>
		<linearGradient id="mythicGradient" x1="0%" y1="0%" x2="100%" y2="100%">
			<stop offset="0%" style="stop-color:#EC4899"/>
			<stop offset="25%" style="stop-color:#8B5CF6"/>
			<stop offset="50%" style="stop-color:#3B82F6"/>
			<stop offset="75%" style="stop-color:#10B981"/>
			<stop offset="100%" style="stop-color:#F59E0B"/>
		</linearGradient>
	</defs>
	<!-- Rainbow gradient border -->
	<path fill="url(#mythicGradient)" d="M4,0h28v4h4v28h-4v4H4v-4H0V4h4V0z"/>
	<!-- Dark inner border -->
	<path fill="#1F2937" d="M8,4h20v4h4v16h-4v4H8v-4H4V8h4V4z"/>
	<!-- Cosmic corners -->
	<polygon fill="#F472B6" points="0,0 8,0 8,2 6,2 6,4 4,4 4,6 2,6 2,8 0,8"/>
	<polygon fill="#A78BFA" points="36,0 28,0 28,2 30,2 30,4 32,4 32,6 34,6 34,8 36,8"/>
	<polygon fill="#60A5FA" points="0,36 8,36 8,34 6,34 6,32 4,32 4,30 2,30 2,28 0,28"/>
	<polygon fill="#34D399" points="36,36 28,36 28,34 30,34 30,32 32,32 32,30 34,30 34,28 36,28"/>
	<!-- Star sparkles -->
	<rect fill="#FFF" x="2" y="2" width="2" height="2"/>
	<rect fill="#FFF" x="32" y="2" width="2" height="2"/>
	<rect fill="#FFF" x="2" y="32" width="2" height="2"/>
	<rect fill="#FFF" x="32" y="32" width="2" height="2"/>
	<!-- Top crown element -->
	<rect fill="#FBBF24" x="14" y="0" width="2" height="2"/>
	<rect fill="#FBBF24" x="17" y="0" width="2" height="3"/>
	<rect fill="#FBBF24" x="20" y="0" width="2" height="2"/>
	<!-- Bottom element -->
	<rect fill="#FBBF24" x="17" y="34" width="2" height="2"/>
	<!-- Side sparkles -->
	<rect fill="#FFF" x="0" y="16" width="2" height="2"/>
	<rect fill="#FFF" x="34" y="16" width="2" height="2"/>
	<rect fill="#FFF" x="16" y="34" width="1" height="1"/>
	<rect fill="#FFF" x="19" y="34" width="1" height="1"/>
</svg>
